<svg xmlns="http://www.w3.org/2000/svg" viewBox="0 0 512 512" width="512" height="512"><defs><path id="ventisca-iso" d="M224.919,110.004h-5.319c-2.476,0-4.487-2.011-4.487-4.487V25.081c0-4.947-4.027-8.973-8.973-8.973h-87.162c-4.947,0-8.973,4.027-8.973,8.973v5.319c0,2.476-2.011,4.487-4.487,4.487H31.811c-8.658,0-15.703,7.046-15.703,15.703v80.436c0,4.947,4.027,8.973,8.973,8.973h5.319c2.476,0,4.487,2.011,4.487,4.487v80.432c0,4.947,4.027,8.973,8.973,8.973h87.166c4.947,0,8.973-4.027,8.973-8.973v-5.319c0-2.476,2.011-4.487,4.487-4.487h55.755c18.556,0,33.65-15.094,33.65-33.65v-62.485c0-4.947-4.027-8.973-8.973-8.973ZM55.91,128.783h-5.319c-2.476,0-4.487-2.011-4.487-4.487v-54.927c0-2.476,2.011-4.487,4.487-4.487h61.657c4.947,0,8.973-4.027,8.973-8.973v-5.319c0-2.476,2.011-4.487,4.487-4.487h54.923c2.476,0,4.487,2.011,4.487,4.487v61.657c0,4.947,4.027,8.973,8.973,8.973h5.319c2.476,0,4.487,2.011,4.487,4.487v45.949c0,7.422-6.038,13.46-13.46,13.46h-52.679c-4.947,0-8.973,4.027-8.973,8.973v5.319c0,2.476-2.011,4.487-4.487,4.487h-54.927c-2.476,0-4.487-2.011-4.487-4.487v-61.653c0-4.947-4.027-8.973-8.973-8.973Z" transform="translate(104.474 104.474) scale(1.2122)" fill-rule="evenodd"/><linearGradient id="ventisca-f" x1="0" y1="0" x2="0" y2="1"><stop offset="0" stop-color="#0b1a28"/><stop offset=".62" stop-color="#1a2c3b"/><stop offset="1" stop-color="#2a2a2c"/></linearGradient><radialGradient id="ventisca-lum" cx=".5" cy="1" r=".55"><stop offset="0" stop-color="#ff9a3c" stop-opacity=".75"/><stop offset=".45" stop-color="#b8561a" stop-opacity=".3"/><stop offset="1" stop-color="#b8561a" stop-opacity="0"/></radialGradient><linearGradient id="ventisca-hi" x1="0" y1="0" x2=".2" y2="1"><stop offset="0" stop-color="#f4fbff"/><stop offset=".45" stop-color="#8fd4ff"/><stop offset="1" stop-color="#4c8fc2"/></linearGradient><linearGradient id="ventisca-lu" x1="0" y1="0" x2="0" y2="1"><stop offset=".6" stop-color="#ff9a3c" stop-opacity="0"/><stop offset="1" stop-color="#ff9a3c" stop-opacity=".6"/></linearGradient></defs><rect width="512" height="512" fill="url(#ventisca-f)"/><rect width="512" height="512" fill="url(#ventisca-lum)"/><path d="M0 452Q128 404 256 430T512 418V512H0Z" fill="#d7e9f5" opacity=".22"/><g stroke="#eaf5fc" stroke-linecap="round"><line x1="290.2" y1="110.7" x2="376.7" y2="138.3" stroke-width="5.8" opacity="0.50"/><line x1="-16.3" y1="429.5" x2="140.4" y2="479.6" stroke-width="4.0" opacity="0.29"/><line x1="132.2" y1="333.8" x2="281.6" y2="381.6" stroke-width="6.2" opacity="0.19"/><line x1="-73.9" y1="173.5" x2="55.5" y2="214.9" stroke-width="5.3" opacity="0.25"/><line x1="-75.2" y1="234.9" x2="-8.2" y2="256.3" stroke-width="6.6" opacity="0.36"/><line x1="196.7" y1="423.8" x2="308.1" y2="459.4" stroke-width="6.2" opacity="0.33"/><line x1="184.4" y1="155.2" x2="324.4" y2="200.0" stroke-width="3.5" opacity="0.45"/><line x1="375.4" y1="267.7" x2="436.9" y2="287.4" stroke-width="4.2" opacity="0.47"/><line x1="299.5" y1="165.1" x2="352.3" y2="181.9" stroke-width="6.5" opacity="0.23"/><line x1="217.6" y1="162.3" x2="291.4" y2="185.9" stroke-width="3.7" opacity="0.21"/><line x1="89.9" y1="353.3" x2="166.0" y2="377.6" stroke-width="5.4" opacity="0.37"/><line x1="463.7" y1="273.9" x2="550.0" y2="301.5" stroke-width="3.1" opacity="0.35"/><line x1="88.0" y1="426.9" x2="192.0" y2="460.2" stroke-width="5.6" opacity="0.37"/><line x1="210.9" y1="222.7" x2="304.9" y2="252.7" stroke-width="6.0" opacity="0.22"/><line x1="81.3" y1="311.3" x2="216.2" y2="354.5" stroke-width="3.0" opacity="0.36"/><line x1="241.4" y1="94.1" x2="373.8" y2="136.5" stroke-width="6.7" opacity="0.45"/><line x1="118.4" y1="74.2" x2="177.0" y2="93.0" stroke-width="5.5" opacity="0.50"/><line x1="503.2" y1="391.7" x2="587.3" y2="418.5" stroke-width="4.5" opacity="0.44"/><line x1="395.6" y1="2.0" x2="481.8" y2="29.6" stroke-width="3.7" opacity="0.19"/><line x1="430.2" y1="438.1" x2="522.9" y2="467.7" stroke-width="5.2" opacity="0.40"/><line x1="1.1" y1="98.7" x2="152.9" y2="147.3" stroke-width="4.1" opacity="0.34"/><line x1="339.5" y1="285.4" x2="429.4" y2="314.2" stroke-width="3.6" opacity="0.21"/><line x1="327.9" y1="119.6" x2="391.6" y2="140.0" stroke-width="6.6" opacity="0.23"/><line x1="373.5" y1="439.7" x2="448.3" y2="463.7" stroke-width="6.7" opacity="0.47"/><line x1="31.0" y1="325.4" x2="139.1" y2="360.0" stroke-width="5.0" opacity="0.28"/><line x1="272.4" y1="185.7" x2="397.8" y2="225.8" stroke-width="4.7" opacity="0.32"/></g><use href="#ventisca-iso" fill="url(#ventisca-hi)" stroke="#f4fbff" stroke-opacity=".6" stroke-width="1.24"/><use href="#ventisca-iso" fill="url(#ventisca-lu)"/></svg>
