<svg xmlns="http://www.w3.org/2000/svg" viewBox="0 0 1200 682" width="1200" height="682" font-family="Outfit, 'Segoe UI', system-ui, sans-serif"><rect width="1200" height="682" rx="36" fill="#10151d"/><rect x="12" y="12" width="1176" height="658" rx="28" fill="#1d2530"/><text x="60" y="84" font-size="24" font-weight="800" letter-spacing="3" fill="#98a2b3">CYBERPUNK EN NÚMEROS</text><rect x="60" y="116" width="340" height="220" rx="22" fill="#6fc3e8" fill-opacity=".1"/><text x="88" y="226" font-size="84" font-weight="800" fill="#6fc3e8">5º</text><text x="88" y="276" font-size="27" fill="#98a2b3">mundo de Norata</text><rect x="420" y="116" width="340" height="220" rx="22" fill="#b7a2ea" fill-opacity=".1"/><text x="448" y="226" font-size="84" font-weight="800" fill="#b7a2ea">5</text><text x="448" y="276" font-size="27" fill="#98a2b3">paletas con su cara</text><text x="448" y="310" font-size="27" fill="#98a2b3">de día</text><rect x="780" y="116" width="340" height="220" rx="22" fill="#f5d76e" fill-opacity=".1"/><text x="808" y="226" font-size="84" font-weight="800" fill="#f5d76e">5</text><text x="808" y="276" font-size="27" fill="#98a2b3">rangos en tu camino</text><text x="60" y="440" font-size="24" font-weight="800" letter-spacing="3" fill="#98a2b3">SUS CINCO PALETAS</text><rect x="60.0" y="472" width="48.5" height="90" fill="#05080d"/><rect x="108.0" y="472" width="48.5" height="90" fill="#0b1119"/><rect x="156.0" y="472" width="48.5" height="90" fill="#27e2ff"/><rect x="204.0" y="472" width="48.5" height="90" fill="#ff3d8b"/><rect x="60" y="472" width="192" height="90" rx="14" fill="none" stroke="#2a3442" stroke-width="3"/><text x="60" y="604" font-size="28" font-weight="700" fill="#eef1f6">Visor</text><rect x="276.0" y="472" width="48.5" height="90" fill="#050a06"/><rect x="324.0" y="472" width="48.5" height="90" fill="#0a130c"/><rect x="372.0" y="472" width="48.5" height="90" fill="#b4f23a"/><rect x="420.0" y="472" width="48.5" height="90" fill="#a472ff"/><rect x="276" y="472" width="192" height="90" rx="14" fill="none" stroke="#2a3442" stroke-width="3"/><text x="276" y="604" font-size="28" font-weight="700" fill="#eef1f6">Ácido</text><rect x="492.0" y="472" width="48.5" height="90" fill="#050716"/><rect x="540.0" y="472" width="48.5" height="90" fill="#0b0f26"/><rect x="588.0" y="472" width="48.5" height="90" fill="#7c95ff"/><rect x="636.0" y="472" width="48.5" height="90" fill="#ff6fb3"/><rect x="492" y="472" width="192" height="90" rx="14" fill="none" stroke="#2a3442" stroke-width="3"/><text x="492" y="604" font-size="28" font-weight="700" fill="#eef1f6">Cobalto</text><rect x="708.0" y="472" width="48.5" height="90" fill="#0a0614"/><rect x="756.0" y="472" width="48.5" height="90" fill="#170a33"/><rect x="804.0" y="472" width="48.5" height="90" fill="#d08bf0"/><rect x="852.0" y="472" width="48.5" height="90" fill="#ffcf85"/><rect x="708" y="472" width="192" height="90" rx="14" fill="none" stroke="#2a3442" stroke-width="3"/><text x="708" y="604" font-size="28" font-weight="700" fill="#eef1f6">Ultravioleta</text><rect x="924.0" y="472" width="48.5" height="90" fill="#07070a"/><rect x="972.0" y="472" width="48.5" height="90" fill="#121208"/><rect x="1020.0" y="472" width="48.5" height="90" fill="#fcee0a"/><rect x="1068.0" y="472" width="48.5" height="90" fill="#ff2e6e"/><rect x="924" y="472" width="192" height="90" rx="14" fill="none" stroke="#2a3442" stroke-width="3"/><text x="924" y="604" font-size="28" font-weight="700" fill="#eef1f6">Voltaje</text></svg>
